<?xml version="1.0" standalone="no"?>
<!DOCTYPE svg PUBLIC "-//W3C//DTD SVG 20010904//EN"
 "http://www.w3.org/TR/2001/REC-SVG-20010904/DTD/svg10.dtd">
<svg version="1.0" xmlns="http://www.w3.org/2000/svg"
 width="1497.000000pt" height="1455.000000pt" viewBox="0 0 1497.000000 1455.000000"
 preserveAspectRatio="xMidYMid meet">
<metadata>
Created by potrace 1.10, written by Peter Selinger 2001-2011
</metadata>
<g transform="translate(0.000000,1455.000000) scale(0.100000,-0.100000)"
fill="#f97316" stroke="none">
<path d="M2907 12164 c-14 -14 -7 -35 37 -107 158 -262 239 -454 301 -712 9
-38 20 -86 25 -105 17 -67 48 -326 55 -455 8 -158 7 -1938 -1 -1958 -7 -20
-295 -30 -694 -24 -280 4 -310 6 -369 26 -121 41 -222 101 -320 190 -19 17
-38 31 -43 31 -14 0 -9 -319 6 -410 41 -242 169 -473 341 -613 73 -59 208
-129 307 -158 68 -21 97 -23 410 -25 186 -1 342 -5 348 -9 6 -4 10 -168 10
-474 l0 -469 -297 -7 c-353 -9 -667 -1 -747 20 -81 21 -168 68 -273 146 -50
38 -96 69 -102 69 -17 0 -14 -282 4 -394 51 -318 225 -573 481 -708 154 -80
188 -85 583 -92 258 -5 347 -9 353 -19 9 -12 3 -1546 -7 -1912 -10 -372 -31
-546 -90 -750 -71 -246 -160 -428 -286 -582 -32 -40 -59 -77 -59 -83 0 -7 636
-10 1947 -10 1651 0 1977 2 2152 15 891 67 1568 236 2250 562 197 95 565 324
697 435 28 24 87 72 130 108 232 191 511 502 692 771 254 379 467 862 572
1294 17 72 38 141 46 153 l16 24 556 -5 c610 -5 645 -8 758 -65 68 -34 165
-104 211 -151 53 -55 57 -42 50 168 -4 104 -13 220 -22 261 -74 355 -268 591
-571 696 -117 40 -175 46 -494 51 -173 3 -323 9 -332 14 -17 9 -18 42 -18 464
0 399 2 455 16 469 14 14 67 16 437 16 237 0 460 -5 507 -11 157 -19 275 -73
394 -181 64 -58 85 -69 87 -45 13 288 -10 468 -82 639 -95 222 -238 371 -459
480 -129 62 -184 69 -640 74 -206 3 -384 7 -395 9 -15 3 -25 21 -38 67 -10 35
-24 81 -31 103 -7 22 -21 67 -31 100 -171 564 -429 1052 -784 1480 -151 183
-390 412 -606 580 -115 90 -440 305 -460 305 -3 0 -33 18 -69 39 -68 42 -249
131 -381 188 -639 276 -1204 406 -2060 475 -169 13 -4005 25 -4018 12z m3778
-504 c331 -15 578 -51 827 -119 83 -22 208 -63 248 -79 14 -6 67 -27 118 -47
52 -20 147 -63 213 -95 544 -273 945 -675 1224 -1225 92 -181 139 -297 225
-553 107 -321 194 -688 169 -718 -10 -12 -397 -14 -2449 -14 -1341 0 -2445 3
-2454 6 -15 6 -16 140 -16 1419 0 777 3 1421 7 1431 6 16 54 17 847 11 463 -4
931 -11 1041 -17z m3124 -3834 c8 -9 10 -142 9 -472 l-3 -459 -2510 0 -2510 0
-3 450 c-1 248 0 460 3 473 l5 22 2499 0 c2099 0 2500 -2 2510 -14z m-101
-1938 c2 -15 -9 -80 -24 -145 -15 -65 -30 -134 -34 -153 -4 -19 -18 -71 -30
-115 -12 -44 -26 -93 -30 -110 -28 -109 -133 -387 -212 -565 -102 -231 -283
-513 -447 -700 -232 -264 -527 -495 -820 -644 -397 -201 -744 -298 -1266 -355
-391 -42 -668 -52 -1380 -49 l-670 3 -3 1419 c-1 1042 1 1422 9 1432 10 12
406 14 2458 12 l2446 -3 3 -27z"/>
</g>
</svg>
